<mxfile host="app.diagrams.net" modified="2022-01-17T22:05:28.207Z" agent="5.0 (Windows)" etag="-eJeP7dff9joHRS-1FMo" version="16.2.7" type="github">
  <diagram id="duKxbzvKcPKZiZXN908E" name="Page-1">
    <mxGraphModel dx="781" dy="1112" grid="1" gridSize="10" guides="1" tooltips="1" connect="1" arrows="1" fold="1" page="1" pageScale="1" pageWidth="827" pageHeight="1169" math="0" shadow="0">
      <root>
        <mxCell id="0" />
        <object label="Invisible sides&#xa;" id="iXh0e321gjpfIZ4SESp8-104">
          <mxCell style="" parent="0" />
        </object>
        <mxCell id="iXh0e321gjpfIZ4SESp8-114" value="" style="shape=parallelogram;perimeter=parallelogramPerimeter;whiteSpace=wrap;html=1;fixedSize=1;size=40;fillColor=#FFFF00;" vertex="1" parent="iXh0e321gjpfIZ4SESp8-104">
          <mxGeometry x="240" y="890" width="120" height="30" as="geometry" />
        </mxCell>
        <mxCell id="iXh0e321gjpfIZ4SESp8-115" value="" style="shape=parallelogram;perimeter=parallelogramPerimeter;whiteSpace=wrap;html=1;fixedSize=1;size=40;fillColor=#FFFF00;" vertex="1" parent="iXh0e321gjpfIZ4SESp8-104">
          <mxGeometry x="160" y="890" width="120" height="30" as="geometry" />
        </mxCell>
        <mxCell id="iXh0e321gjpfIZ4SESp8-116" value="" style="shape=parallelogram;perimeter=parallelogramPerimeter;whiteSpace=wrap;html=1;fixedSize=1;size=40;fillColor=#FFFF00;" vertex="1" parent="iXh0e321gjpfIZ4SESp8-104">
          <mxGeometry x="80" y="890" width="120" height="30" as="geometry" />
        </mxCell>
        <mxCell id="iXh0e321gjpfIZ4SESp8-117" value="" style="shape=parallelogram;perimeter=parallelogramPerimeter;whiteSpace=wrap;html=1;fixedSize=1;size=40;fillColor=#FFFF00;" vertex="1" parent="iXh0e321gjpfIZ4SESp8-104">
          <mxGeometry x="280" y="860" width="120" height="30" as="geometry" />
        </mxCell>
        <mxCell id="iXh0e321gjpfIZ4SESp8-118" value="" style="shape=parallelogram;perimeter=parallelogramPerimeter;whiteSpace=wrap;html=1;fixedSize=1;size=40;fillColor=#FFFF00;" vertex="1" parent="iXh0e321gjpfIZ4SESp8-104">
          <mxGeometry x="200" y="860" width="120" height="30" as="geometry" />
        </mxCell>
        <mxCell id="iXh0e321gjpfIZ4SESp8-119" value="" style="shape=parallelogram;perimeter=parallelogramPerimeter;whiteSpace=wrap;html=1;fixedSize=1;size=40;fillColor=#FFFF00;" vertex="1" parent="iXh0e321gjpfIZ4SESp8-104">
          <mxGeometry x="120" y="860" width="120" height="30" as="geometry" />
        </mxCell>
        <mxCell id="iXh0e321gjpfIZ4SESp8-120" value="" style="shape=parallelogram;perimeter=parallelogramPerimeter;whiteSpace=wrap;html=1;fixedSize=1;size=40;fillColor=#FFFF00;" vertex="1" parent="iXh0e321gjpfIZ4SESp8-104">
          <mxGeometry x="320" y="830" width="120" height="30" as="geometry" />
        </mxCell>
        <mxCell id="iXh0e321gjpfIZ4SESp8-121" value="" style="shape=parallelogram;perimeter=parallelogramPerimeter;whiteSpace=wrap;html=1;fixedSize=1;size=40;fillColor=#FFFF00;" vertex="1" parent="iXh0e321gjpfIZ4SESp8-104">
          <mxGeometry x="240" y="830" width="120" height="30" as="geometry" />
        </mxCell>
        <mxCell id="iXh0e321gjpfIZ4SESp8-122" value="" style="shape=parallelogram;perimeter=parallelogramPerimeter;whiteSpace=wrap;html=1;fixedSize=1;size=40;fillColor=#FFFF00;" vertex="1" parent="iXh0e321gjpfIZ4SESp8-104">
          <mxGeometry x="160" y="830" width="120" height="30" as="geometry" />
        </mxCell>
        <mxCell id="iXh0e321gjpfIZ4SESp8-141" value="" style="whiteSpace=wrap;html=1;aspect=fixed;fillColor=#FF0000;" vertex="1" parent="iXh0e321gjpfIZ4SESp8-104">
          <mxGeometry x="360" y="750" width="80" height="80" as="geometry" />
        </mxCell>
        <mxCell id="iXh0e321gjpfIZ4SESp8-142" value="" style="whiteSpace=wrap;html=1;aspect=fixed;fillColor=#FF0000;" vertex="1" parent="iXh0e321gjpfIZ4SESp8-104">
          <mxGeometry x="280" y="750" width="80" height="80" as="geometry" />
        </mxCell>
        <mxCell id="iXh0e321gjpfIZ4SESp8-143" value="" style="whiteSpace=wrap;html=1;aspect=fixed;fillColor=#FF0000;" vertex="1" parent="iXh0e321gjpfIZ4SESp8-104">
          <mxGeometry x="200" y="750" width="80" height="80" as="geometry" />
        </mxCell>
        <mxCell id="iXh0e321gjpfIZ4SESp8-144" value="" style="whiteSpace=wrap;html=1;aspect=fixed;fillColor=#FF0000;" vertex="1" parent="iXh0e321gjpfIZ4SESp8-104">
          <mxGeometry x="200" y="670" width="80" height="80" as="geometry" />
        </mxCell>
        <mxCell id="iXh0e321gjpfIZ4SESp8-145" value="" style="whiteSpace=wrap;html=1;aspect=fixed;fillColor=#FF0000;" vertex="1" parent="iXh0e321gjpfIZ4SESp8-104">
          <mxGeometry x="280" y="670" width="80" height="80" as="geometry" />
        </mxCell>
        <mxCell id="iXh0e321gjpfIZ4SESp8-146" value="" style="whiteSpace=wrap;html=1;aspect=fixed;fillColor=#FF0000;" vertex="1" parent="iXh0e321gjpfIZ4SESp8-104">
          <mxGeometry x="360" y="670" width="80" height="80" as="geometry" />
        </mxCell>
        <mxCell id="iXh0e321gjpfIZ4SESp8-147" value="" style="whiteSpace=wrap;html=1;aspect=fixed;fillColor=#FF0000;" vertex="1" parent="iXh0e321gjpfIZ4SESp8-104">
          <mxGeometry x="360" y="590" width="80" height="80" as="geometry" />
        </mxCell>
        <mxCell id="iXh0e321gjpfIZ4SESp8-148" value="" style="whiteSpace=wrap;html=1;aspect=fixed;fillColor=#FF0000;" vertex="1" parent="iXh0e321gjpfIZ4SESp8-104">
          <mxGeometry x="280" y="590" width="80" height="80" as="geometry" />
        </mxCell>
        <mxCell id="iXh0e321gjpfIZ4SESp8-149" value="" style="whiteSpace=wrap;html=1;aspect=fixed;fillColor=#FF0000;" vertex="1" parent="iXh0e321gjpfIZ4SESp8-104">
          <mxGeometry x="200" y="590" width="80" height="80" as="geometry" />
        </mxCell>
        <mxCell id="iXh0e321gjpfIZ4SESp8-150" value="" style="shape=parallelogram;perimeter=parallelogramPerimeter;whiteSpace=wrap;html=1;fixedSize=1;rotation=90;size=30;flipV=1;fillColor=#0000FF;" vertex="1" parent="iXh0e321gjpfIZ4SESp8-104">
          <mxGeometry x="45" y="685" width="110" height="40" as="geometry" />
        </mxCell>
        <mxCell id="iXh0e321gjpfIZ4SESp8-151" value="" style="shape=parallelogram;perimeter=parallelogramPerimeter;whiteSpace=wrap;html=1;fixedSize=1;rotation=90;size=30;flipV=1;fillColor=#0000FF;" vertex="1" parent="iXh0e321gjpfIZ4SESp8-104">
          <mxGeometry x="45" y="765" width="110" height="40" as="geometry" />
        </mxCell>
        <mxCell id="iXh0e321gjpfIZ4SESp8-152" value="" style="shape=parallelogram;perimeter=parallelogramPerimeter;whiteSpace=wrap;html=1;fixedSize=1;rotation=90;size=30;flipV=1;fillColor=#0000FF;" vertex="1" parent="iXh0e321gjpfIZ4SESp8-104">
          <mxGeometry x="45" y="845" width="110" height="40" as="geometry" />
        </mxCell>
        <mxCell id="iXh0e321gjpfIZ4SESp8-153" value="" style="shape=parallelogram;perimeter=parallelogramPerimeter;whiteSpace=wrap;html=1;fixedSize=1;rotation=90;size=30;flipV=1;fillColor=#0000FF;" vertex="1" parent="iXh0e321gjpfIZ4SESp8-104">
          <mxGeometry x="85" y="655" width="110" height="40" as="geometry" />
        </mxCell>
        <mxCell id="iXh0e321gjpfIZ4SESp8-154" value="" style="shape=parallelogram;perimeter=parallelogramPerimeter;whiteSpace=wrap;html=1;fixedSize=1;rotation=90;size=30;flipV=1;fillColor=#0000FF;" vertex="1" parent="iXh0e321gjpfIZ4SESp8-104">
          <mxGeometry x="85" y="735" width="110" height="40" as="geometry" />
        </mxCell>
        <mxCell id="iXh0e321gjpfIZ4SESp8-155" value="" style="shape=parallelogram;perimeter=parallelogramPerimeter;whiteSpace=wrap;html=1;fixedSize=1;rotation=90;size=30;flipV=1;fillColor=#0000FF;" vertex="1" parent="iXh0e321gjpfIZ4SESp8-104">
          <mxGeometry x="85" y="815" width="110" height="40" as="geometry" />
        </mxCell>
        <mxCell id="iXh0e321gjpfIZ4SESp8-156" value="" style="shape=parallelogram;perimeter=parallelogramPerimeter;whiteSpace=wrap;html=1;fixedSize=1;rotation=90;size=30;flipV=1;fillColor=#0000FF;" vertex="1" parent="iXh0e321gjpfIZ4SESp8-104">
          <mxGeometry x="125" y="625" width="110" height="40" as="geometry" />
        </mxCell>
        <mxCell id="iXh0e321gjpfIZ4SESp8-157" value="" style="shape=parallelogram;perimeter=parallelogramPerimeter;whiteSpace=wrap;html=1;fixedSize=1;rotation=90;size=30;flipV=1;fillColor=#0000FF;" vertex="1" parent="iXh0e321gjpfIZ4SESp8-104">
          <mxGeometry x="125" y="705" width="110" height="40" as="geometry" />
        </mxCell>
        <mxCell id="iXh0e321gjpfIZ4SESp8-158" value="" style="shape=parallelogram;perimeter=parallelogramPerimeter;whiteSpace=wrap;html=1;fixedSize=1;rotation=90;size=30;flipV=1;fillColor=#0000FF;" vertex="1" parent="iXh0e321gjpfIZ4SESp8-104">
          <mxGeometry x="125" y="785" width="110" height="40" as="geometry" />
        </mxCell>
        <object label="Visible sides&#xa;" id="1">
          <mxCell parent="0" />
        </object>
        <mxCell id="iXh0e321gjpfIZ4SESp8-36" value="" style="shape=parallelogram;perimeter=parallelogramPerimeter;whiteSpace=wrap;html=1;fixedSize=1;size=40;" vertex="1" parent="1">
          <mxGeometry x="240" y="170" width="120" height="30" as="geometry" />
        </mxCell>
        <mxCell id="iXh0e321gjpfIZ4SESp8-37" value="" style="shape=parallelogram;perimeter=parallelogramPerimeter;whiteSpace=wrap;html=1;fixedSize=1;rotation=90;size=30;flipV=1;fillColor=#009900;" vertex="1" parent="1">
          <mxGeometry x="285" y="205" width="110" height="40" as="geometry" />
        </mxCell>
        <mxCell id="iXh0e321gjpfIZ4SESp8-39" value="" style="whiteSpace=wrap;html=1;aspect=fixed;fillColor=#FF8000;" vertex="1" parent="1">
          <mxGeometry x="240" y="200" width="80" height="80" as="geometry" />
        </mxCell>
        <mxCell id="iXh0e321gjpfIZ4SESp8-41" value="" style="shape=parallelogram;perimeter=parallelogramPerimeter;whiteSpace=wrap;html=1;fixedSize=1;rotation=90;size=30;flipV=1;fillColor=#009900;" vertex="1" parent="1">
          <mxGeometry x="285" y="285" width="110" height="40" as="geometry" />
        </mxCell>
        <mxCell id="iXh0e321gjpfIZ4SESp8-42" value="" style="whiteSpace=wrap;html=1;aspect=fixed;fillColor=#FF8000;" vertex="1" parent="1">
          <mxGeometry x="240" y="280" width="80" height="80" as="geometry" />
        </mxCell>
        <mxCell id="iXh0e321gjpfIZ4SESp8-43" value="" style="shape=parallelogram;perimeter=parallelogramPerimeter;whiteSpace=wrap;html=1;fixedSize=1;rotation=90;size=30;flipV=1;fillColor=#009900;" vertex="1" parent="1">
          <mxGeometry x="285" y="365" width="110" height="40" as="geometry" />
        </mxCell>
        <mxCell id="iXh0e321gjpfIZ4SESp8-44" value="" style="whiteSpace=wrap;html=1;aspect=fixed;fillColor=#FF8000;" vertex="1" parent="1">
          <mxGeometry x="240" y="360" width="80" height="80" as="geometry" />
        </mxCell>
        <mxCell id="iXh0e321gjpfIZ4SESp8-45" value="" style="whiteSpace=wrap;html=1;aspect=fixed;fillColor=#FF8000;" vertex="1" parent="1">
          <mxGeometry x="160" y="280" width="80" height="80" as="geometry" />
        </mxCell>
        <mxCell id="iXh0e321gjpfIZ4SESp8-46" value="" style="whiteSpace=wrap;html=1;aspect=fixed;fillColor=#FF8000;" vertex="1" parent="1">
          <mxGeometry x="160" y="200" width="80" height="80" as="geometry" />
        </mxCell>
        <mxCell id="iXh0e321gjpfIZ4SESp8-47" value="" style="whiteSpace=wrap;html=1;aspect=fixed;fillColor=#FF8000;" vertex="1" parent="1">
          <mxGeometry x="160" y="360" width="80" height="80" as="geometry" />
        </mxCell>
        <mxCell id="iXh0e321gjpfIZ4SESp8-48" value="" style="whiteSpace=wrap;html=1;aspect=fixed;fillColor=#FF8000;" vertex="1" parent="1">
          <mxGeometry x="80" y="360" width="80" height="80" as="geometry" />
        </mxCell>
        <mxCell id="iXh0e321gjpfIZ4SESp8-49" value="" style="whiteSpace=wrap;html=1;aspect=fixed;fillColor=#FF8000;" vertex="1" parent="1">
          <mxGeometry x="80" y="280" width="80" height="80" as="geometry" />
        </mxCell>
        <mxCell id="iXh0e321gjpfIZ4SESp8-50" value="" style="whiteSpace=wrap;html=1;aspect=fixed;fillColor=#FF8000;" vertex="1" parent="1">
          <mxGeometry x="80" y="200" width="80" height="80" as="geometry" />
        </mxCell>
        <mxCell id="iXh0e321gjpfIZ4SESp8-51" value="" style="shape=parallelogram;perimeter=parallelogramPerimeter;whiteSpace=wrap;html=1;fixedSize=1;size=40;" vertex="1" parent="1">
          <mxGeometry x="160" y="170" width="120" height="30" as="geometry" />
        </mxCell>
        <mxCell id="iXh0e321gjpfIZ4SESp8-52" value="" style="shape=parallelogram;perimeter=parallelogramPerimeter;whiteSpace=wrap;html=1;fixedSize=1;size=40;" vertex="1" parent="1">
          <mxGeometry x="80" y="170" width="120" height="30" as="geometry" />
        </mxCell>
        <mxCell id="iXh0e321gjpfIZ4SESp8-53" value="" style="shape=parallelogram;perimeter=parallelogramPerimeter;whiteSpace=wrap;html=1;fixedSize=1;size=40;" vertex="1" parent="1">
          <mxGeometry x="280" y="140" width="120" height="30" as="geometry" />
        </mxCell>
        <mxCell id="iXh0e321gjpfIZ4SESp8-54" value="" style="shape=parallelogram;perimeter=parallelogramPerimeter;whiteSpace=wrap;html=1;fixedSize=1;size=40;" vertex="1" parent="1">
          <mxGeometry x="200" y="140" width="120" height="30" as="geometry" />
        </mxCell>
        <mxCell id="iXh0e321gjpfIZ4SESp8-55" value="" style="shape=parallelogram;perimeter=parallelogramPerimeter;whiteSpace=wrap;html=1;fixedSize=1;size=40;" vertex="1" parent="1">
          <mxGeometry x="120" y="140" width="120" height="30" as="geometry" />
        </mxCell>
        <mxCell id="iXh0e321gjpfIZ4SESp8-56" value="" style="shape=parallelogram;perimeter=parallelogramPerimeter;whiteSpace=wrap;html=1;fixedSize=1;size=40;" vertex="1" parent="1">
          <mxGeometry x="320" y="110" width="120" height="30" as="geometry" />
        </mxCell>
        <mxCell id="iXh0e321gjpfIZ4SESp8-57" value="" style="shape=parallelogram;perimeter=parallelogramPerimeter;whiteSpace=wrap;html=1;fixedSize=1;size=40;" vertex="1" parent="1">
          <mxGeometry x="240" y="110" width="120" height="30" as="geometry" />
        </mxCell>
        <mxCell id="iXh0e321gjpfIZ4SESp8-58" value="" style="shape=parallelogram;perimeter=parallelogramPerimeter;whiteSpace=wrap;html=1;fixedSize=1;size=40;" vertex="1" parent="1">
          <mxGeometry x="160" y="110" width="120" height="30" as="geometry" />
        </mxCell>
        <mxCell id="iXh0e321gjpfIZ4SESp8-62" value="" style="shape=parallelogram;perimeter=parallelogramPerimeter;whiteSpace=wrap;html=1;fixedSize=1;rotation=90;size=30;flipV=1;fillColor=#009900;" vertex="1" parent="1">
          <mxGeometry x="325" y="175" width="110" height="40" as="geometry" />
        </mxCell>
        <mxCell id="iXh0e321gjpfIZ4SESp8-63" value="" style="shape=parallelogram;perimeter=parallelogramPerimeter;whiteSpace=wrap;html=1;fixedSize=1;rotation=90;size=30;flipV=1;fillColor=#009900;" vertex="1" parent="1">
          <mxGeometry x="325" y="255" width="110" height="40" as="geometry" />
        </mxCell>
        <mxCell id="iXh0e321gjpfIZ4SESp8-64" value="" style="shape=parallelogram;perimeter=parallelogramPerimeter;whiteSpace=wrap;html=1;fixedSize=1;rotation=90;size=30;flipV=1;fillColor=#009900;" vertex="1" parent="1">
          <mxGeometry x="325" y="335" width="110" height="40" as="geometry" />
        </mxCell>
        <mxCell id="iXh0e321gjpfIZ4SESp8-65" value="" style="shape=parallelogram;perimeter=parallelogramPerimeter;whiteSpace=wrap;html=1;fixedSize=1;rotation=90;size=30;flipV=1;fillColor=#009900;" vertex="1" parent="1">
          <mxGeometry x="365" y="145" width="110" height="40" as="geometry" />
        </mxCell>
        <mxCell id="iXh0e321gjpfIZ4SESp8-66" value="" style="shape=parallelogram;perimeter=parallelogramPerimeter;whiteSpace=wrap;html=1;fixedSize=1;rotation=90;size=30;flipV=1;fillColor=#009900;" vertex="1" parent="1">
          <mxGeometry x="365" y="225" width="110" height="40" as="geometry" />
        </mxCell>
        <mxCell id="iXh0e321gjpfIZ4SESp8-67" value="" style="shape=parallelogram;perimeter=parallelogramPerimeter;whiteSpace=wrap;html=1;fixedSize=1;rotation=90;size=30;flipV=1;fillColor=#009900;" vertex="1" parent="1">
          <mxGeometry x="365" y="305" width="110" height="40" as="geometry" />
        </mxCell>
        <mxCell id="iXh0e321gjpfIZ4SESp8-68" value="" style="shape=parallelogram;perimeter=parallelogramPerimeter;whiteSpace=wrap;html=1;fixedSize=1;size=40;opacity=70;" vertex="1" parent="1">
          <mxGeometry x="240" y="650" width="120" height="30" as="geometry" />
        </mxCell>
        <mxCell id="iXh0e321gjpfIZ4SESp8-69" value="" style="shape=parallelogram;perimeter=parallelogramPerimeter;whiteSpace=wrap;html=1;fixedSize=1;rotation=90;size=30;flipV=1;fillColor=#009900;opacity=70;" vertex="1" parent="1">
          <mxGeometry x="285" y="685" width="110" height="40" as="geometry" />
        </mxCell>
        <mxCell id="iXh0e321gjpfIZ4SESp8-70" value="" style="whiteSpace=wrap;html=1;aspect=fixed;fillColor=#FF8000;opacity=70;" vertex="1" parent="1">
          <mxGeometry x="240" y="680" width="80" height="80" as="geometry" />
        </mxCell>
        <mxCell id="iXh0e321gjpfIZ4SESp8-71" value="" style="shape=parallelogram;perimeter=parallelogramPerimeter;whiteSpace=wrap;html=1;fixedSize=1;rotation=90;size=30;flipV=1;fillColor=#009900;opacity=70;" vertex="1" parent="1">
          <mxGeometry x="285" y="765" width="110" height="40" as="geometry" />
        </mxCell>
        <mxCell id="iXh0e321gjpfIZ4SESp8-72" value="" style="whiteSpace=wrap;html=1;aspect=fixed;fillColor=#FF8000;opacity=70;" vertex="1" parent="1">
          <mxGeometry x="240" y="760" width="80" height="80" as="geometry" />
        </mxCell>
        <mxCell id="iXh0e321gjpfIZ4SESp8-73" value="" style="shape=parallelogram;perimeter=parallelogramPerimeter;whiteSpace=wrap;html=1;fixedSize=1;rotation=90;size=30;flipV=1;fillColor=#009900;opacity=70;" vertex="1" parent="1">
          <mxGeometry x="285" y="845" width="110" height="40" as="geometry" />
        </mxCell>
        <mxCell id="iXh0e321gjpfIZ4SESp8-74" value="" style="whiteSpace=wrap;html=1;aspect=fixed;fillColor=#FF8000;opacity=70;" vertex="1" parent="1">
          <mxGeometry x="240" y="840" width="80" height="80" as="geometry" />
        </mxCell>
        <mxCell id="iXh0e321gjpfIZ4SESp8-75" value="" style="whiteSpace=wrap;html=1;aspect=fixed;fillColor=#FF8000;opacity=70;" vertex="1" parent="1">
          <mxGeometry x="160" y="760" width="80" height="80" as="geometry" />
        </mxCell>
        <mxCell id="iXh0e321gjpfIZ4SESp8-76" value="" style="whiteSpace=wrap;html=1;aspect=fixed;fillColor=#FF8000;opacity=70;" vertex="1" parent="1">
          <mxGeometry x="160" y="680" width="80" height="80" as="geometry" />
        </mxCell>
        <mxCell id="iXh0e321gjpfIZ4SESp8-77" value="" style="whiteSpace=wrap;html=1;aspect=fixed;fillColor=#FF8000;opacity=70;" vertex="1" parent="1">
          <mxGeometry x="160" y="840" width="80" height="80" as="geometry" />
        </mxCell>
        <mxCell id="iXh0e321gjpfIZ4SESp8-78" value="" style="whiteSpace=wrap;html=1;aspect=fixed;fillColor=#FF8000;opacity=70;" vertex="1" parent="1">
          <mxGeometry x="80" y="840" width="80" height="80" as="geometry" />
        </mxCell>
        <mxCell id="iXh0e321gjpfIZ4SESp8-79" value="" style="whiteSpace=wrap;html=1;aspect=fixed;fillColor=#FF8000;opacity=70;" vertex="1" parent="1">
          <mxGeometry x="80" y="760" width="80" height="80" as="geometry" />
        </mxCell>
        <mxCell id="iXh0e321gjpfIZ4SESp8-80" value="" style="whiteSpace=wrap;html=1;aspect=fixed;fillColor=#FF8000;opacity=70;" vertex="1" parent="1">
          <mxGeometry x="80" y="680" width="80" height="80" as="geometry" />
        </mxCell>
        <mxCell id="iXh0e321gjpfIZ4SESp8-81" value="" style="shape=parallelogram;perimeter=parallelogramPerimeter;whiteSpace=wrap;html=1;fixedSize=1;size=40;opacity=70;" vertex="1" parent="1">
          <mxGeometry x="160" y="650" width="120" height="30" as="geometry" />
        </mxCell>
        <mxCell id="iXh0e321gjpfIZ4SESp8-82" value="" style="shape=parallelogram;perimeter=parallelogramPerimeter;whiteSpace=wrap;html=1;fixedSize=1;size=40;opacity=70;" vertex="1" parent="1">
          <mxGeometry x="80" y="650" width="120" height="30" as="geometry" />
        </mxCell>
        <mxCell id="iXh0e321gjpfIZ4SESp8-83" value="" style="shape=parallelogram;perimeter=parallelogramPerimeter;whiteSpace=wrap;html=1;fixedSize=1;size=40;opacity=70;" vertex="1" parent="1">
          <mxGeometry x="280" y="620" width="120" height="30" as="geometry" />
        </mxCell>
        <mxCell id="iXh0e321gjpfIZ4SESp8-84" value="" style="shape=parallelogram;perimeter=parallelogramPerimeter;whiteSpace=wrap;html=1;fixedSize=1;size=40;opacity=70;" vertex="1" parent="1">
          <mxGeometry x="200" y="620" width="120" height="30" as="geometry" />
        </mxCell>
        <mxCell id="iXh0e321gjpfIZ4SESp8-85" value="" style="shape=parallelogram;perimeter=parallelogramPerimeter;whiteSpace=wrap;html=1;fixedSize=1;size=40;opacity=70;" vertex="1" parent="1">
          <mxGeometry x="120" y="620" width="120" height="30" as="geometry" />
        </mxCell>
        <mxCell id="iXh0e321gjpfIZ4SESp8-86" value="" style="shape=parallelogram;perimeter=parallelogramPerimeter;whiteSpace=wrap;html=1;fixedSize=1;size=40;opacity=70;" vertex="1" parent="1">
          <mxGeometry x="320" y="590" width="120" height="30" as="geometry" />
        </mxCell>
        <mxCell id="iXh0e321gjpfIZ4SESp8-87" value="" style="shape=parallelogram;perimeter=parallelogramPerimeter;whiteSpace=wrap;html=1;fixedSize=1;size=40;opacity=70;" vertex="1" parent="1">
          <mxGeometry x="240" y="590" width="120" height="30" as="geometry" />
        </mxCell>
        <mxCell id="iXh0e321gjpfIZ4SESp8-88" value="" style="shape=parallelogram;perimeter=parallelogramPerimeter;whiteSpace=wrap;html=1;fixedSize=1;size=40;opacity=70;" vertex="1" parent="1">
          <mxGeometry x="160" y="590" width="120" height="30" as="geometry" />
        </mxCell>
        <mxCell id="iXh0e321gjpfIZ4SESp8-89" value="" style="shape=parallelogram;perimeter=parallelogramPerimeter;whiteSpace=wrap;html=1;fixedSize=1;rotation=90;size=30;flipV=1;fillColor=#009900;opacity=70;" vertex="1" parent="1">
          <mxGeometry x="325" y="655" width="110" height="40" as="geometry" />
        </mxCell>
        <mxCell id="iXh0e321gjpfIZ4SESp8-90" value="" style="shape=parallelogram;perimeter=parallelogramPerimeter;whiteSpace=wrap;html=1;fixedSize=1;rotation=90;size=30;flipV=1;fillColor=#009900;opacity=70;" vertex="1" parent="1">
          <mxGeometry x="325" y="735" width="110" height="40" as="geometry" />
        </mxCell>
        <mxCell id="iXh0e321gjpfIZ4SESp8-91" value="" style="shape=parallelogram;perimeter=parallelogramPerimeter;whiteSpace=wrap;html=1;fixedSize=1;rotation=90;size=30;flipV=1;fillColor=#009900;opacity=70;" vertex="1" parent="1">
          <mxGeometry x="325" y="815" width="110" height="40" as="geometry" />
        </mxCell>
        <mxCell id="iXh0e321gjpfIZ4SESp8-92" value="" style="shape=parallelogram;perimeter=parallelogramPerimeter;whiteSpace=wrap;html=1;fixedSize=1;rotation=90;size=30;flipV=1;fillColor=#009900;opacity=70;" vertex="1" parent="1">
          <mxGeometry x="365" y="625" width="110" height="40" as="geometry" />
        </mxCell>
        <mxCell id="iXh0e321gjpfIZ4SESp8-93" value="" style="shape=parallelogram;perimeter=parallelogramPerimeter;whiteSpace=wrap;html=1;fixedSize=1;rotation=90;size=30;flipV=1;fillColor=#009900;opacity=70;" vertex="1" parent="1">
          <mxGeometry x="365" y="705" width="110" height="40" as="geometry" />
        </mxCell>
        <mxCell id="iXh0e321gjpfIZ4SESp8-94" value="" style="shape=parallelogram;perimeter=parallelogramPerimeter;whiteSpace=wrap;html=1;fixedSize=1;rotation=90;size=30;flipV=1;fillColor=#009900;opacity=70;" vertex="1" parent="1">
          <mxGeometry x="365" y="785" width="110" height="40" as="geometry" />
        </mxCell>
      </root>
    </mxGraphModel>
  </diagram>
</mxfile>
